<?xml version="1.0" encoding="utf-8"?>
<!-- Generator: Adobe Illustrator 15.0.0, SVG Export Plug-In . SVG Version: 6.00 Build 0)  -->
<!DOCTYPE svg PUBLIC "-//W3C//DTD SVG 1.1//EN" "http://www.w3.org/Graphics/SVG/1.1/DTD/svg11.dtd">
<svg version="1.1" id="Ebene_1" xmlns="http://www.w3.org/2000/svg" xmlns:xlink="http://www.w3.org/1999/xlink" x="0px" y="0px"
	 width="512px" height="512px" viewBox="0 0 512 512" enable-background="new 0 0 512 512" xml:space="preserve">
<path d="M483,451.742L345.792,314.533c24.717-31.275,38.337-69.613,38.337-109.969c0-47.418-18.664-91.809-51.957-125.607
	C298.374,45.664,253.982,27,206.564,27S114.756,45.664,80.958,78.958C47.664,112.251,29,157.146,29,204.564
	s18.664,91.81,51.958,125.607c33.294,33.293,78.189,51.957,125.607,51.957c40.355,0,78.693-13.62,109.969-38.337L453.742,481
	L483,451.742z M110.215,300.914c-52.966-52.967-52.966-139.731,0-192.699c25.727-25.727,60.029-39.851,96.349-39.851
	c36.32,0,70.622,14.125,96.349,39.851c52.967,52.967,52.967,139.731,0,192.699c-25.727,25.726-60.029,39.85-96.349,39.85
	C170.244,340.764,135.942,326.64,110.215,300.914z"/>
</svg>
