<?xml version="1.0" encoding="utf-8"?>
<!-- Generator: Adobe Illustrator 15.0.0, SVG Export Plug-In . SVG Version: 6.00 Build 0)  -->
<!DOCTYPE svg PUBLIC "-//W3C//DTD SVG 1.1//EN" "http://www.w3.org/Graphics/SVG/1.1/DTD/svg11.dtd">
<svg version="1.1" id="Ebene_1" xmlns="http://www.w3.org/2000/svg" xmlns:xlink="http://www.w3.org/1999/xlink" x="0px" y="0px"
	 width="512px" height="512px" viewBox="0 0 512 512" enable-background="new 0 0 512 512" xml:space="preserve">
<path d="M255.716,255.688c-65.312,0-118.75-53.438-118.75-118.75C136.966,71.625,190.403,17,255.716,17s118.75,53.438,118.75,118.75
	S321.028,255.688,255.716,255.688z M255.716,40.75c-52.25,0-95,42.75-95,95s42.75,95,95,95c52.25,0,95-42.75,95-95
	S307.966,40.75,255.716,40.75z"/>
<path d="M411.279,492h-308.75c-10.688,0-21.375-3.562-30.875-9.5c-26.125-19-38-49.875-30.875-80.75
	c14.25-61.75,39.188-103.312,84.312-146.062c15.438-14.25,38-15.438,55.812-4.75c45.125,28.501,104.5,28.501,149.625,0
	c16.625-10.688,40.376-9.5,54.625,3.562c41.562,36.812,70.062,86.687,84.312,147.25c8.313,33.251-7.125,66.5-35.625,84.312
	C427.903,489.624,419.591,492,411.279,492z M155.966,267.562c-4.75,0-10.688,2.374-14.25,5.938
	c-42.75,39.188-64.125,77.188-77.188,134.188c-4.75,21.375,3.562,42.75,21.375,55.812c3.563,2.375,9.5,4.75,16.625,4.75h309.938
	c3.562,0,7.124-1.188,10.688-2.375c20.187-11.875,29.688-35.626,24.938-58.188c-13.063-55.812-39.188-100.938-77.188-135.375
	c-5.938-5.938-19-7.125-26.126-1.188c-26.125,17.813-57,26.126-87.874,26.126c-30.876,0-60.563-9.5-86.688-26.126
	C164.278,268.751,160.716,267.562,155.966,267.562z"/>
</svg>
