<?xml version="1.0" encoding="utf-8"?>
<!-- Generator: Adobe Illustrator 15.0.0, SVG Export Plug-In . SVG Version: 6.00 Build 0)  -->
<!DOCTYPE svg PUBLIC "-//W3C//DTD SVG 1.1//EN" "http://www.w3.org/Graphics/SVG/1.1/DTD/svg11.dtd">
<svg version="1.1" id="Ebene_1" xmlns="http://www.w3.org/2000/svg" xmlns:xlink="http://www.w3.org/1999/xlink" x="0px" y="0px"
	 width="512px" height="512px" viewBox="0 0 512 512" enable-background="new 0 0 512 512" xml:space="preserve">
<path d="M266.052,152.209c-36.065-3.714-70.964,13.488-92.739,41.757c-24.075,31.26-26.307,74.827-9.031,109.636
	c17.281,34.814,54.343,56.174,92.719,56.611c36.155-0.412,69.018-18.758,88.504-49.179c19.665-30.695,20.219-70.369,4.21-102.62
	C333.814,176.358,301.146,155.822,266.052,152.209z M348.305,267.277c-4.731,45.962-46.161,80.154-91.305,80.671
	c-37.848-0.432-72.025-23.488-85.861-58.905c-13.932-35.648-3.171-76.145,24.692-101.708
	c28.174-25.848,71.018-29.999,104.472-12.476C334.078,192.558,352.155,229.899,348.305,267.277z M461.87,226.438
	c-13.974-1.208-27.946-2.416-41.926-3.629c-4.341-20.931-12.538-40.691-24.265-58.558c9.025-10.74,18.056-21.48,27.087-32.22
	c2.147-2.553,2.512-6.156,0-8.667c-11.045-11.045-22.092-22.091-33.132-33.132c-2.517-2.516-6.114-2.147-8.673,0
	c-10.739,9.025-21.475,18.056-32.214,27.082c-17.872-11.726-37.632-19.918-58.562-24.265c-1.208-13.974-2.417-27.947-3.63-41.926
	c-0.285-3.323-2.569-6.124-6.13-6.124c-15.619,0-31.238,0-46.857,0c-3.561,0-5.839,2.801-6.13,6.129
	c-1.208,13.974-2.416,27.947-3.629,41.926c-20.931,4.341-40.691,12.539-58.563,24.265c-10.74-9.025-21.475-18.057-32.214-27.082
	c-2.553-2.147-6.156-2.517-8.672,0c-11.046,11.045-22.092,22.091-33.132,33.132c-2.516,2.516-2.147,6.114,0,8.667
	c9.025,10.74,18.056,21.479,27.082,32.214c-11.726,17.872-19.918,37.632-24.265,58.558c-13.973,1.208-27.952,2.417-41.926,3.629
	c-3.317,0.291-6.119,2.569-6.119,6.13c0,15.619,0,31.238,0,46.857c0,3.561,2.801,5.845,6.129,6.13
	c13.974,1.209,27.947,2.416,41.92,3.63c4.342,20.931,12.539,40.69,24.265,58.562c-9.025,10.739-18.056,21.475-27.087,32.214
	c-2.147,2.554-2.511,6.156,0,8.668c11.046,11.045,22.092,22.092,33.137,33.137c2.517,2.517,6.114,2.147,8.672,0
	c10.74-9.025,21.474-18.051,32.214-27.081c17.872,11.726,37.632,19.923,58.563,24.264c1.208,13.975,2.416,27.947,3.629,41.921
	c0.285,3.329,2.564,6.13,6.125,6.13c15.619,0,31.238,0,46.857,0c3.561,0,5.841-2.801,6.13-6.129
	c1.208-13.975,2.416-27.947,3.63-41.922c20.931-4.341,40.69-12.538,58.562-24.264c10.739,9.03,21.475,18.056,32.214,27.087
	c2.554,2.147,6.156,2.517,8.668,0c11.045-11.046,22.092-22.092,33.137-33.138c2.512-2.517,2.147-6.114,0-8.667
	c-9.031-10.739-18.057-21.48-27.087-32.215c11.727-17.872,19.918-37.632,24.265-58.563c13.974-1.207,27.947-2.414,41.926-3.628
	c0.729-0.063,1.361-0.254,1.957-0.496c2.284-0.675,4.173-2.538,4.173-5.64c0-15.619,0-31.238,0-46.857
	C468,229.013,465.199,226.729,461.87,226.438z M455.741,273.83c-13.637,1.181-27.271,2.363-40.907,3.539
	c-2.559,0.222-5.397,1.688-5.914,4.499c-4.178,22.894-12.934,44.047-26.169,63.189c-1.651,2.385-0.729,5.423,0.96,7.428
	c8.809,10.48,17.624,20.963,26.433,31.439c-8.408,8.407-16.812,16.811-25.215,25.214c-10.48-8.81-20.963-17.624-31.438-26.434
	c-2.005-1.688-5.043-2.61-7.428-0.959c-19.137,13.24-40.29,21.996-63.188,26.174c-2.812,0.513-4.278,3.355-4.5,5.914
	c-1.182,13.636-2.358,27.271-3.54,40.907c-11.884,0-23.773,0-35.658,0c-1.182-13.637-2.363-27.271-3.54-40.907
	c-0.222-2.559-1.683-5.397-4.5-5.914c-22.894-4.172-44.046-12.934-63.184-26.17c-2.384-1.65-5.423-0.728-7.427,0.961
	c-10.481,8.809-20.962,17.618-31.438,26.428c-8.409-8.403-16.812-16.812-25.22-25.214c8.809-10.482,17.624-20.959,26.433-31.439
	c1.688-2.005,2.606-5.043,0.96-7.428c-13.235-19.143-21.997-40.29-26.169-63.189c-0.511-2.812-3.354-4.277-5.913-4.499
	c-13.636-1.183-27.272-2.358-40.907-3.539c0-11.885,0-23.775,0-35.66c13.635-1.182,27.271-2.363,40.907-3.54
	c2.553-0.222,5.396-1.688,5.913-4.5c4.178-22.893,12.935-44.046,26.169-63.184c1.651-2.384,0.728-5.422-0.96-7.427
	c-8.809-10.481-17.619-20.963-26.433-31.439c8.402-8.403,16.811-16.812,25.214-25.214c10.476,8.809,20.958,17.618,31.439,26.427
	c2.004,1.688,5.043,2.611,7.427,0.96c19.138-13.235,40.291-21.997,63.184-26.169c2.812-0.511,4.278-3.354,4.5-5.913
	c1.182-13.636,2.358-27.272,3.539-40.907c11.885,0,23.774,0,35.659,0c1.182,13.635,2.357,27.271,3.54,40.907
	c0.222,2.559,1.684,5.396,4.499,5.913c22.894,4.178,44.047,12.935,63.184,26.169c2.385,1.651,5.423,0.729,7.428-0.96
	c10.482-8.809,20.963-17.619,31.439-26.433c8.407,8.403,16.811,16.811,25.214,25.214c-8.809,10.481-17.623,20.963-26.433,31.444
	c-1.683,2.004-2.605,5.043-0.96,7.427c13.24,19.138,21.997,40.291,26.169,63.184c0.513,2.812,3.355,4.278,5.914,4.5
	c13.636,1.182,27.271,2.358,40.907,3.54C455.741,250.055,455.741,261.945,455.741,273.83z"/>
</svg>
