<?xml version="1.0" encoding="utf-8"?>
<!-- Generator: Adobe Illustrator 15.0.0, SVG Export Plug-In . SVG Version: 6.00 Build 0)  -->
<!DOCTYPE svg PUBLIC "-//W3C//DTD SVG 1.1//EN" "http://www.w3.org/Graphics/SVG/1.1/DTD/svg11.dtd">
<svg version="1.1" id="Ebene_1" xmlns="http://www.w3.org/2000/svg" xmlns:xlink="http://www.w3.org/1999/xlink" x="0px" y="0px"
	 width="512px" height="512px" viewBox="0 0 512 512" enable-background="new 0 0 512 512" xml:space="preserve">
<path d="M366.195,50.033c-0.561-3.41-2.922-6.265-6.158-7.452c-19.738-7.204-45.829-14.343-73.827-14.361
	c-21.962-0.007-45.233,4.476-66.866,17.09l0,0c-10.89,6.331-19.475,14.336-26.011,23.348c-9.836,13.536-15.072,29.114-18.023,44.926
	c-2.38,12.789-3.277,25.819-3.759,38.45c-5.638,0.133-12.03,0.175-17.848,0.175c-5.091,0-9.747-0.03-13.138-0.067
	c-1.693-0.018-3.06-0.029-4.012-0.041c-0.952-0.019-1.458-0.025-1.469-0.025c-2.555-0.036-5.061,0.976-6.886,2.766
	c-1.819,1.801-2.855,4.301-2.837,6.861l0.38,63.612c0.036,5.301,4.325,9.964,9.614,9.964c0.006,0,2.554,0,6.681,0
	c9.367,0,26.848-0.404,40.287-0.139c1.988,43.698,2.458,109.183,2.458,159.993c0,21.422-0.091,40.09-0.163,53.536
	c-0.048,6.704-0.084,12.035-0.121,15.733c-0.03,3.692-0.047,5.668-0.047,5.68c-0.024,2.554,0.976,5.019,2.789,6.837
	c1.808,1.808,4.277,2.82,6.837,2.808l85.141-0.427c2.561-0.013,4.97-1.037,6.764-2.862c1.803-1.819,2.784-4.247,2.761-6.812
	c0,0-0.445-52.356-0.971-108.829c-0.445-48.565-0.939-100.104-1.222-124.109c5.252-0.09,11.373-0.126,17.325-0.121
	c6.956,0,13.727,0.042,18.752,0.084c2.505,0.018,4.582,0.042,6.023,0.06c1.452,0.018,2.26,0.024,2.26,0.024
	c2.559,0.037,5.023-0.958,6.849-2.753c1.825-1.795,2.855-4.24,2.861-6.801l0.106-58.92c0.008-2.56-0.998-5.843-2.812-7.644
	c-1.809-1.801-4.241-3.645-6.808-3.645c0,0-1.145,0-3.18,0c-2.036,0-4.935,0.868-8.41,0.868c-10.68,0-26.837,0.38-39.619,0.163
	c0.229-6.536,0.82-12.097,1.783-17.024c0.929-4.795,2.205-8.68,3.712-11.878c1.131-2.398,2.391-4.289,3.74-5.874
	c2.047-2.373,4.265-3.976,7.12-5.168c2.85-1.181,6.434-1.886,11.023-1.892c8.15-0.024,19.343,2.386,33.36,7.801
	c0.103,0.043,0.218,0.055,0.325,0.097c0.114,0.036,0.205,0.103,0.319,0.133c0.205,0.066,0.41,0.072,0.614,0.12
	c0.326,0.079,0.645,0.15,0.964,0.193c0.312,0.036,0.62,0.048,0.922,0.06c0.318,0.006,0.626,0.012,0.946-0.007
	c0.313-0.023,0.613-0.066,0.909-0.12c0.308-0.047,0.615-0.108,0.909-0.187c0.29-0.078,0.579-0.181,0.855-0.29
	c0.295-0.102,0.585-0.216,0.861-0.355c0.271-0.132,0.523-0.283,0.784-0.439c0.264-0.163,0.53-0.338,0.782-0.524
	c0.241-0.174,0.458-0.373,0.675-0.578c0.241-0.217,0.47-0.434,0.675-0.67c0.204-0.228,0.386-0.47,0.571-0.716
	c0.188-0.253,0.374-0.512,0.536-0.789c0.157-0.265,0.296-0.56,0.434-0.855c0.091-0.193,0.206-0.368,0.283-0.572
	c0.049-0.108,0.06-0.223,0.104-0.343c0.03-0.103,0.096-0.192,0.126-0.301c1.934-6.374,5.252-17.053,8.103-28.325
	c1.422-5.65,2.741-11.457,3.717-17.054c0.969-5.601,1.627-10.951,1.633-15.938C366.67,54.303,366.538,52.166,366.195,50.033z
	 M285.886,101.795c-4.742,2.452-8.874,5.91-12.183,10.072c-4.98,6.265-8.187,13.946-10.196,22.687
	c-2.012,8.759-2.874,18.686-2.874,29.878c0,1.144,0.013,2.307,0.024,3.482c0.083,5.114,4.162,7.855,9.276,8.023
	c13.619,0.434,35.938-0.897,49.576-0.897c0.711,0,1.38,0,2.049,0l-0.073,41.041c-4.896-0.036-11.156,0.626-17.612,0.626
	c-10.199,0-20.76,0.44-27.499,0.771c-5.164,0.259-9.175,4.716-9.104,9.885c0.26,16.361,0.838,77.062,1.356,133.52
	c0.258,28.233,0.499,55.486,0.68,75.629c0.085,9.776,0.157,17.892,0.206,23.649l-65.83,0.351c0.102-12.692,0.241-36.77,0.241-65.618
	c0-54.534-0.519-125.937-2.916-170.054c-0.266-4.964-4.253-8.873-9.217-9.048c-12.969-0.458-34.523-0.542-46.95-0.548l-0.265-43.914
	c2.71,0.018,5.831,0.037,9.132,0.037c9.361-0.007,20.096-0.103,27.68-0.543c4.963-0.283,8.892-4.336,9.018-9.301
	c0.518-20.149,1.663-40.606,7.017-58.003c2.669-8.711,6.337-16.639,11.404-23.608c5.079-6.964,11.53-13.023,20.167-18.06l0,0
	c18.15-10.566,37.8-14.475,57.226-14.481c22.115-0.019,43.748,5.168,61.246,11.096c-0.138,2.994-0.584,6.687-1.282,10.692
	c-1.29,7.397-3.38,15.818-5.506,23.529c-0.977,3.531-1.952,6.891-2.874,9.987c-11.295-3.656-21.354-5.626-30.529-5.644
	C299.469,97.025,292.217,98.5,285.886,101.795z"/>
</svg>
