<?xml version="1.0" encoding="utf-8"?>
<!-- Generator: Adobe Illustrator 15.0.0, SVG Export Plug-In . SVG Version: 6.00 Build 0)  -->
<!DOCTYPE svg PUBLIC "-//W3C//DTD SVG 1.1//EN" "http://www.w3.org/Graphics/SVG/1.1/DTD/svg11.dtd">
<svg version="1.1" id="Ebene_1" xmlns="http://www.w3.org/2000/svg" xmlns:xlink="http://www.w3.org/1999/xlink" x="0px" y="0px"
	 width="512px" height="512px" viewBox="0 0 512 512" enable-background="new 0 0 512 512" xml:space="preserve">
<g>
	<path d="M254,486C126.075,486,22,381.925,22,254S126.075,22,254,22s232,104.075,232,232S381.925,486,254,486z M254,64.851
		C149.702,64.851,64.851,149.702,64.851,254S149.702,443.149,254,443.149S443.149,358.298,443.149,254S358.298,64.851,254,64.851z"
		/>
	<path d="M368.293,230.192h-90.49v-90.48c0-13.149-10.658-23.803-23.803-23.803c-13.15,0-23.803,10.658-23.803,23.803v90.48h-90.489
		c-13.15,0-23.803,10.658-23.803,23.803c0,13.15,10.658,23.804,23.803,23.804h90.489v90.484c0,13.149,10.658,23.803,23.803,23.803
		c13.15,0,23.803-10.657,23.803-23.803v-90.479h90.485c13.149,0,23.804-10.658,23.804-23.804
		C392.096,240.851,381.438,230.192,368.293,230.192z"/>
</g>
</svg>
