<?xml version="1.0" encoding="utf-8"?>
<!-- Generator: Adobe Illustrator 15.0.0, SVG Export Plug-In . SVG Version: 6.00 Build 0)  -->
<!DOCTYPE svg PUBLIC "-//W3C//DTD SVG 1.1//EN" "http://www.w3.org/Graphics/SVG/1.1/DTD/svg11.dtd">
<svg version="1.1" id="Ebene_1" xmlns="http://www.w3.org/2000/svg" xmlns:xlink="http://www.w3.org/1999/xlink" x="0px" y="0px"
	 width="512px" height="512px" viewBox="0 0 512 512" enable-background="new 0 0 512 512" xml:space="preserve">
<g>
	<path fill="#231F20" d="M232.189,402.077c-100.823,0-182.838-82.024-182.838-182.84c0-100.822,82.023-182.838,182.838-182.838
		c100.816,0,182.839,82.022,182.839,182.838C415.028,320.061,333.006,402.077,232.189,402.077z M232.189,51.766
		c-92.349,0-167.472,75.131-167.472,167.471c0,92.34,75.123,167.472,167.472,167.472s167.472-75.122,167.472-167.472
		C399.661,126.89,324.531,51.766,232.189,51.766z"/>
	<path fill="#231F20" d="M460.258,476.886c-1.967,0-3.936-0.755-5.434-2.253L339.873,359.691c-3.004-3.004-3.004-7.863,0-10.867
		s7.86-3.004,10.865,0l114.943,114.946c3.004,3.004,3.004,7.858,0,10.862C464.183,476.139,462.223,476.886,460.258,476.886z"/>
</g>
</svg>
