<?xml version="1.0" encoding="utf-8"?>
<!-- Generator: Adobe Illustrator 15.0.0, SVG Export Plug-In . SVG Version: 6.00 Build 0)  -->
<!DOCTYPE svg PUBLIC "-//W3C//DTD SVG 1.1//EN" "http://www.w3.org/Graphics/SVG/1.1/DTD/svg11.dtd">
<svg version="1.1" id="Ebene_1" xmlns="http://www.w3.org/2000/svg" xmlns:xlink="http://www.w3.org/1999/xlink" x="0px" y="0px"
	 width="512px" height="512px" viewBox="0 0 512 512" enable-background="new 0 0 512 512" xml:space="preserve">
<g>
	<polygon points="257.115,425.762 266.425,425.762 266.425,130.554 248.352,130.554 248.352,425.762 	"/>
	<polygon points="211.109,425.762 193.034,130.554 174.413,130.554 192.487,425.762 	"/>
	<polygon points="322.839,130.554 304.217,425.762 322.839,425.762 340.912,130.554 	"/>
	<path d="M432.925,84.548v-9.311h-92.013V43.471c0-6.572-2.738-13.145-8.216-17.526c-4.381-3.834-9.857-6.025-15.882-6.025H199.06
		c-6.025,0-11.502,2.19-15.884,6.025c-4.929,4.381-7.667,10.954-7.667,17.526v31.767H82.4V93.86h18.074l18.622,341.761
		c1.643,28.48,15.883,45.459,36.695,45.459h101.324h102.966c20.813,0,33.958-16.979,36.149-45.459l18.62-341.761h18.074V84.548z
		 M193.582,43.471c0-2.19,1.095-3.286,1.643-3.833c0.547-0.548,1.643-1.095,3.834-1.095h117.755c1.643,0,2.738,0.548,3.285,1.095
		c0.548,0.548,1.644,1.643,1.644,3.833v31.767H193.582V43.471z M360.081,462.458H257.115H156.339
		c-13.692,0-17.526-15.335-18.622-27.933L119.096,93.86h45.458h190.05h41.626l-18.622,340.666l0,0
		C377.061,444.933,373.774,462.458,360.081,462.458z"/>
</g>
</svg>
