<?xml version="1.0" encoding="utf-8"?>
<!-- Generator: Adobe Illustrator 15.0.0, SVG Export Plug-In . SVG Version: 6.00 Build 0)  -->
<!DOCTYPE svg PUBLIC "-//W3C//DTD SVG 1.1//EN" "http://www.w3.org/Graphics/SVG/1.1/DTD/svg11.dtd">
<svg version="1.1" id="Ebene_1" xmlns="http://www.w3.org/2000/svg" xmlns:xlink="http://www.w3.org/1999/xlink" x="0px" y="0px"
	 width="512px" height="512px" viewBox="0 0 512 512" enable-background="new 0 0 512 512" xml:space="preserve">
<g transform="translate(0,-952.36218)">
	<path d="M255.103,973.513c-130.029,0-236.028,105.794-236.028,235.823c0,130.028,105.999,236.026,236.028,236.026
		c130.028,0,235.822-105.998,235.822-236.026C490.925,1079.307,385.131,973.513,255.103,973.513z M255.103,1018.072
		c105.94,0,191.261,85.325,191.261,191.264c0,105.94-85.321,191.467-191.261,191.467s-191.468-85.526-191.468-191.467
		c0-105.939,85.528-191.262,191.468-191.262V1018.072z M175.545,1186.953c-12.304,0.642-21.759,11.134-21.119,23.438
		c0.638,12.273,11.082,21.718,23.356,21.122h154.435c12.306,0.347,22.559-9.35,22.905-21.654
		c0.346-12.304-9.35-22.559-21.655-22.906c-0.416-0.011-0.832-0.011-1.25,0H177.782
		C177.037,1186.916,176.291,1186.916,175.545,1186.953z"/>
</g>
</svg>
