<?xml version="1.0" encoding="utf-8"?>
<!-- Generator: Adobe Illustrator 15.0.0, SVG Export Plug-In . SVG Version: 6.00 Build 0)  -->
<!DOCTYPE svg PUBLIC "-//W3C//DTD SVG 1.1//EN" "http://www.w3.org/Graphics/SVG/1.1/DTD/svg11.dtd">
<svg version="1.1" id="Ebene_1" xmlns="http://www.w3.org/2000/svg" xmlns:xlink="http://www.w3.org/1999/xlink" x="0px" y="0px"
	 width="512px" height="512px" viewBox="0 0 512 512" enable-background="new 0 0 512 512" xml:space="preserve">
<g>
	<path d="M423.46,472.5H90.22c-6.687,0-12.132-6.23-12.132-13.894V263.061H43.325c-6.59,0-8.691-4.999-9.177-6.538
		c-0.484-1.535-1.683-6.914,3.373-11.76L248.449,42.466c4.596-4.407,12.199-4.401,16.78,0l210.919,202.302
		c5.053,4.84,3.858,10.22,3.373,11.759c-0.48,1.534-2.581,6.533-9.167,6.533h-34.764v195.546
		C435.591,466.266,430.151,472.5,423.46,472.5z M92.646,455.828h328.387V260.284c0-7.658,5.439-13.893,12.132-13.893h22.012
		L256.845,56.164L58.503,246.391h22.012c6.687,0,12.131,6.235,12.131,13.893V455.828z"/>
</g>
</svg>
