<?xml version="1.0" encoding="utf-8"?>
<!-- Generator: Adobe Illustrator 15.0.0, SVG Export Plug-In . SVG Version: 6.00 Build 0)  -->
<!DOCTYPE svg PUBLIC "-//W3C//DTD SVG 1.1//EN" "http://www.w3.org/Graphics/SVG/1.1/DTD/svg11.dtd">
<svg version="1.1" id="Ebene_1" xmlns="http://www.w3.org/2000/svg" xmlns:xlink="http://www.w3.org/1999/xlink" x="0px" y="0px"
	 width="512px" height="512px" viewBox="0 0 512 512" enable-background="new 0 0 512 512" xml:space="preserve">
<g transform="translate(0.000000,2000.000000) scale(0.100000,-0.100000)">
	<path d="M2067.915,19481.535c-54.531-10.225-105.815-40.654-146.24-86.826c-48.501-54.971-78.076-127.689-84.785-207.559
		c-1.582-18.818-2.305-122.734-1.836-295.775l0.679-266.725l56.621-0.82c30.938-0.566,59.829-0.307,63.974,0.82l7.607,1.637v278.389
		c0,272.803,0,278.891,4.868,299.043c10.601,46.43,39.956,89.018,75.977,110.293c36.968,21.586-85.21,19.639,1264.038,19.076
		l1211.142-0.82l18.467-7.719c40.42-17.178,67.686-46.182,86.875-91.787c17.295-41.475,16.152,26.537,15.215-898.355
		c-0.43-772.875-0.693-830.355-4.365-844.467c-16.406-62.441-54.99-108.057-106.963-126.309
		c-12.471-4.141-29.561-4.707-163.33-5.781l-149.648-0.879l-0.469-250.137l-0.684-250.43l-86.406,106.172
		c-47.607,58.037-109.961,134.58-138.848,169.404c-28.633,35.137-81.748,100.078-117.559,144.57l-65.605,80.742h-156.611h-156.846
		v-76.045v-75.977l130.039-0.312h129.834l103.926-127.676c234.014-287.764,281.846-346.357,334.961-410.215
		c53.838-64.639,55.889-66.895,69.053-71.289c24.961-8.584,49.238,0,66.328,23.203c16.621,22.402,15.938,8.545,15.938,312.91
		v272.793l91.914,1.396c72.109,1.133,95.391,2.207,109.023,5.83c111.582,28.73,191.748,122.412,218.545,255.928
		c4.141,19.643,4.395,60.811,4.824,866c0.938,929.346,1.631,871.562-13.164,925.146c-33.711,120.84-117.559,203.73-226.357,223.932
		c-9.912,1.631-428.75,2.758-1227.763,2.451C2301.928,19485.115,2084.067,19484.549,2067.915,19481.535z"/>
	<path d="M619.307,18417.342c-108.12-23.521-191.499-115.572-221.069-243.814l-6.235-27.104v-862.402
		c0-709.004,0.464-865.186,2.988-877.607c13.633-67.188,35.127-115.83,71.411-160.625c38.799-48.32,78.076-75.723,134.648-94.219
		c15.732-5.234,25.176-5.811,100.518-6.924c45.728-0.557,99.312-1.123,118.931-1.631l35.811-0.566l1.162-284.717
		c1.406-320.078-0.22-294.912,19.185-318.682c21.24-25.977,54.272-29.854,79.912-9.404c5.088,4.131,70.942,80.996,146.24,170.527
		c75.298,89.541,190.122,226.113,254.78,303.252l118.037,140.42h800.2c522.983,0,805.239,1.055,814.731,2.754
		c118.242,22.949,212.52,137.344,229.355,278.066c1.875,15.762,2.305,254.551,1.875,871.826l-0.674,849.932l-6.035,26.289
		c-13.154,56.396-35.332,104.209-67.002,144.814c-37.393,47.861-83.584,79.619-142.998,97.871
		c-13.828,4.141-105.332,4.398-1241.592,4.965C830.928,18420.926,634.087,18420.363,619.307,18417.342z M3082.9,18263.934
		c41.572-12.734,77.646-46.992,95.889-91.221c17.783-43.418,16.416,32.061,16.416-891.719c0-810.459,0-830.078-4.404-850.225
		c-13.887-64.141-55.215-114.473-107.646-130.762c-12.275-3.574-101.875-4.15-836.914-4.15h-823.271l-218.545-259.834
		l-218.75-259.541l-0.684,259.541l-0.474,259.834H814.048c-164.956,0-170.938,0.254-187.563,5.781
		c-22.651,7.461-42.993,21.309-61.24,41.475c-18.462,20.752-29.57,40.654-38.799,69.639l-7.393,22.695l-0.684,837.51
		c-0.684,937.338-2.1,856.338,16.411,900.57c17.988,43.105,54.058,77.672,94.487,90.406c16.367,4.961,43.887,5.219,1226.348,5.219
		C3051.953,18269.455,3065.371,18269.455,3082.9,18263.934z"/>
</g>
</svg>
