<?xml version="1.0" encoding="utf-8"?>
<!-- Generator: Adobe Illustrator 15.0.0, SVG Export Plug-In . SVG Version: 6.00 Build 0)  -->
<!DOCTYPE svg PUBLIC "-//W3C//DTD SVG 1.1//EN" "http://www.w3.org/Graphics/SVG/1.1/DTD/svg11.dtd">
<svg version="1.1" id="Ebene_1" xmlns="http://www.w3.org/2000/svg" xmlns:xlink="http://www.w3.org/1999/xlink" x="0px" y="0px"
	 width="512px" height="512px" viewBox="0 0 512 512" enable-background="new 0 0 512 512" xml:space="preserve">
<g>
	<path d="M354.198,68.774c26.33,0,50.066,11.096,66.764,28.881c13.838,0.358,15.299,0.487,21.989,0.487
		c4.025,0,9.941-0.05,21.566-0.128c-7.377,25.915-9.348,31.236-18.809,60.99c0.172,3.925,0.264,7.857,0.264,11.833
		c0,120.85-91.997,260.214-260.221,260.214c-80.552,0-125.763-39.817-118.385-39.817c42.847,0,82.299-14.605,113.601-39.145
		C140.942,351.345-4.754,258.796,76.585,85.514c45.118,55.325,112.513,91.733,188.53,95.543c-1.575-6.69-2.378-13.659-2.378-20.844
		C262.737,109.717,303.687,68.774,354.198,68.774 M464.518,98.021h0.035 M354.198,47.287c-61.214,0-111.201,48.943-112.898,109.741
		c-57.726-9.076-110.693-39.266-148.054-85.086c-4.104-5.035-10.242-7.908-16.646-7.908c-0.874,0-1.755,0.051-2.629,0.157
		c-7.334,0.903-13.688,5.509-16.825,12.198c-45.619,97.177-23.658,168.246,2.8,210.748c19.104,30.699,45.899,54.788,71.37,69.658
		c-19.978,8.545-41.565,12.966-63.935,12.966c-12.276,0-22.269,9.897-22.269,22.06c0,21.151,33.263,36.121,44.187,41.043
		c19.949,8.981,52.875,19.684,96.468,19.684c105.923,0,172.291-50.067,209.316-92.069c46.014-52.195,72.394-121.315,72.394-189.634
		c0-2.937-0.051-5.909-0.143-8.896c1.575-4.928,2.921-9.14,4.125-12.9c5.322-16.618,7.8-24.332,13.473-44.23
		c0.716-2.135,1.104-4.426,1.104-6.804c0-11.869-9.605-21.488-21.467-21.488c-0.016,0-0.029,0-0.043,0c-0.051,0-0.1,0-0.143,0
		l-6.928,0.057c-7.162,0.05-11.402,0.08-14.498,0.08c-4.311,0-6.33-0.058-11.287-0.201l-1.712-0.051
		C409.302,57.809,382.182,47.287,354.198,47.287L354.198,47.287z"/>
</g>
</svg>
