<?xml version="1.0" encoding="utf-8"?>
<!-- Generator: Adobe Illustrator 15.0.0, SVG Export Plug-In . SVG Version: 6.00 Build 0)  -->
<!DOCTYPE svg PUBLIC "-//W3C//DTD SVG 1.1//EN" "http://www.w3.org/Graphics/SVG/1.1/DTD/svg11.dtd">
<svg version="1.1" id="Ebene_1" xmlns="http://www.w3.org/2000/svg" xmlns:xlink="http://www.w3.org/1999/xlink" x="0px" y="0px"
	 width="512px" height="512px" viewBox="0 0 512 512" enable-background="new 0 0 512 512" xml:space="preserve">
<g>
	<path d="M256.14,53.519c111.258,0,201.622,90.362,201.622,201.621c0,111.258-90.364,201.622-201.622,201.622
		c-111.259,0-201.621-90.364-201.621-201.622C54.519,143.88,144.88,53.519,256.14,53.519 M256.14,25.28
		c-127.072,0-229.86,102.788-229.86,229.86S129.067,485,256.14,485S486,382.212,486,255.14S383.212,25.28,256.14,25.28L256.14,25.28
		z"/>
</g>
<path d="M256.14,370.352c-11.86,0-22.026-9.601-22.026-22.025V241.021c0-11.86,9.601-22.026,22.026-22.026
	c12.425,0,22.026,9.602,22.026,22.026V348.89C278.166,360.751,268,370.352,256.14,370.352z"/>
<path d="M256.14,183.414c-11.86,0-22.026-9.601-22.026-22.026s9.601-22.026,22.026-22.026c12.425,0,22.026,9.601,22.026,22.026
	S268,183.414,256.14,183.414z"/>
</svg>
