<?xml version="1.0" encoding="utf-8"?>
<!-- Generator: Adobe Illustrator 15.0.0, SVG Export Plug-In . SVG Version: 6.00 Build 0)  -->
<!DOCTYPE svg PUBLIC "-//W3C//DTD SVG 1.1//EN" "http://www.w3.org/Graphics/SVG/1.1/DTD/svg11.dtd">
<svg version="1.1" id="Ebene_1" xmlns="http://www.w3.org/2000/svg" xmlns:xlink="http://www.w3.org/1999/xlink" x="0px" y="0px"
	 width="512px" height="512px" viewBox="0 0 512 512" enable-background="new 0 0 512 512" xml:space="preserve">
<g transform="translate(0,-952.36218)">
	<path d="M259.618,972.962c-44.825-0.075-86.079,12.715-102.691,42.394c-11.467,21.117-12.798,46.997-12.894,76.509
		c-17.356,0-35.002,0-52.25,0c-6.817,0.557-12.612,5.188-12.893,10.302l-14.477,324.279c-0.364,5.771,6.515,11.231,14.25,11.316
		h362.139c7.733-0.087,14.611-5.547,14.248-11.316l-14.475-324.279c-0.342-5.432-6.968-10.223-14.252-10.302h-50.896
		c-0.032-29.512-1.196-55.392-12.665-76.509C344.17,983.471,301.912,973.387,259.618,972.962z M259.618,994.58
		c32.768-0.259,64.444,7.711,76.231,28.882c8.42,15.513,10.042,39.469,10.401,68.402H172.987
		c0.361-28.933,2.206-52.889,10.63-68.402C198.042,999.51,232.231,994.713,259.618,994.58z M107.165,1113.483
		c111.157,0,205.127,0,305.135,0l13.573,302.66H93.593L107.165,1113.483z"/>
</g>
</svg>
